<svg width="309" height="325" viewBox="0 0 309 325" fill="none" xmlns="http://www.w3.org/2000/svg">
<path d="M28.2417 87.3355C18.6413 85.3138 6.71909 89.2287 1.79628 101.487C-3.6962 115.164 3.63822 129.174 20.6338 135.999C37.6294 142.825 52.6168 137.779 58.1092 124.102C63.032 111.844 57.0487 100.738 48.797 95.5903L47.4212 99.0162C54.3188 103.434 58.8637 112.936 54.8975 122.812C50.5551 133.625 38.2021 139.232 21.9559 132.707C5.87029 126.247 0.665653 113.59 5.00804 102.777C8.97424 92.9006 18.9091 89.2133 26.8659 90.7613L28.2417 87.3355Z" fill="#510101"/>
<path d="M95.0476 40.82C84.2758 26.0317 68.8288 22.3009 56.914 30.9796C44.9525 39.6923 43.789 55.5221 54.5607 70.3104C65.3155 85.0754 80.7562 88.8465 92.7177 80.1338C104.632 71.4552 105.819 55.6083 95.0476 40.82ZM92.1974 42.8961C101.88 56.1892 100.815 69.945 90.6757 77.3304C80.443 84.7838 67.0829 81.4638 57.4343 68.2173C47.7006 54.8541 48.8168 41.1684 58.956 33.7831C69.0953 26.3977 82.4914 29.6199 92.1974 42.8961Z" fill="#510101"/>
<path d="M169.855 28.6869C168.651 10.4694 157.609 -0.912298 142.932 0.0574402C128.196 1.03098 118.776 13.7646 119.98 31.9821C121.182 50.1708 132.197 61.5832 146.932 60.6097C161.61 59.6399 171.059 46.9044 169.855 28.6869ZM166.344 28.9189C167.426 45.2945 159.194 56.3309 146.704 57.1561C134.099 57.989 124.598 48.0663 123.52 31.7482C122.432 15.2863 130.669 4.33622 143.16 3.51099C155.65 2.68576 165.233 12.5452 166.344 28.9189Z" fill="#510101"/>
<path d="M184.367 62.8527L187.61 64.4269L196.011 47.1199L207.617 42.4296L216.049 78.2298L220.097 80.1944L210.826 41.1018L246.097 27.1546L241.789 25.064L198.792 42.3143L198.429 42.138L213.403 11.2863L210.159 9.71211L184.367 62.8527Z" fill="#510101"/>
<path d="M272.422 50.8523L269.898 48.2565L227.369 89.6048L229.892 92.2007L272.422 50.8523Z" fill="#510101"/>
<path d="M241.542 105.771L255.841 136.146L258.868 134.72L246.104 107.608L268.311 97.1531L280.031 122.048L283.058 120.623L271.338 95.728L293.493 85.298L305.962 111.785L308.989 110.36L294.985 80.611L241.542 105.771Z" fill="#510101"/>
<path d="M95.9172 275.213C99.8651 267.316 99.1741 256.045 89.6244 248.965C78.9696 241.067 65.1011 244.259 55.2859 257.499C45.4707 270.74 46.4481 284.937 57.1028 292.836C66.6525 299.915 77.6843 297.237 84.0463 291.227L81.3774 289.248C75.9598 294.246 66.6517 296.037 58.9577 290.334C50.5339 284.089 48.4682 272.057 57.8506 259.401C67.1402 246.869 79.3458 245.223 87.7695 251.468C95.4635 257.171 96.4094 266.66 93.2483 273.235L95.9172 275.213Z" fill="#510101"/>
<path d="M108.218 318.004L136.769 324.125L137.4 321.181L112.021 315.74L122.532 266.709L119.36 266.028L108.218 318.004Z" fill="#510101"/>
<path d="M196.432 265.024L204.202 299.165C206.235 308.098 201.146 316.151 191.757 318.287C182.367 320.424 174.296 315.366 172.263 306.433L164.493 272.292L161.33 273.012L169.139 307.33C171.51 317.864 181.312 323.858 192.448 321.324C203.609 318.784 209.807 309.175 207.405 298.622L199.596 264.304L196.432 265.024Z" fill="#510101"/>
<path d="M248.438 297.183L262.824 285.295C270.747 278.747 271.26 271.016 266.069 264.734C261.141 258.772 254.123 257.939 249.62 261.087L249.422 260.847C252.433 256.709 252.233 251.251 248.116 246.269C242.908 239.967 235.324 239.062 227.882 245.212L214.577 256.207L248.438 297.183ZM249.021 292.795L234.686 275.449L246.651 265.561C252.293 260.899 259.382 261.573 263.648 266.735C267.682 271.616 267.068 277.882 260.906 282.974L249.021 292.795ZM232.801 273.168L218.995 256.462L229.799 247.533C235.602 242.738 241.495 243.188 245.695 248.27C249.58 252.972 249.688 259.213 244.466 263.529L232.801 273.168Z" fill="#510101"/>
<path d="M279.92 176.84C282.637 176.84 284.84 174.637 284.84 171.92C284.84 169.203 282.637 167 279.92 167C277.203 167 275 169.203 275 171.92C275 174.637 277.203 176.84 279.92 176.84Z" stroke="#510101" stroke-width="2" stroke-miterlimit="10"/>
<path d="M28.92 176.84C31.6372 176.84 33.84 174.637 33.84 171.92C33.84 169.203 31.6372 167 28.92 167C26.2028 167 24 169.203 24 171.92C24 174.637 26.2028 176.84 28.92 176.84Z" stroke="#510101" stroke-width="2" stroke-miterlimit="10"/>
<path d="M154 232C187.137 232 214 205.137 214 172C214 138.863 187.137 112 154 112C120.863 112 94 138.863 94 172C94 205.137 120.863 232 154 232Z" fill="#FFE3BA" stroke="#510101" stroke-width="3" stroke-miterlimit="10"/>
<path d="M154.65 141.55C159.189 141.55 162.87 137.87 162.87 133.33C162.87 128.791 159.189 125.11 154.65 125.11C150.11 125.11 146.43 128.791 146.43 133.33C146.43 137.87 150.11 141.55 154.65 141.55Z" fill="#510101" stroke="#510101" stroke-width="2" stroke-miterlimit="10"/>
<path d="M117.4 166.25C121.939 166.25 125.62 162.569 125.62 158.03C125.62 153.49 121.939 149.81 117.4 149.81C112.86 149.81 109.18 153.49 109.18 158.03C109.18 162.569 112.86 166.25 117.4 166.25Z" fill="#510101" stroke="#510101" stroke-width="2" stroke-miterlimit="10"/>
<path d="M179.24 213.19C183.779 213.19 187.46 209.51 187.46 204.97C187.46 200.43 183.779 196.75 179.24 196.75C174.7 196.75 171.02 200.43 171.02 204.97C171.02 209.51 174.7 213.19 179.24 213.19Z" fill="#510101" stroke="#510101" stroke-width="2" stroke-miterlimit="10"/>
<path d="M192.111 162.11C196.65 162.11 200.331 158.43 200.331 153.89C200.331 149.35 196.65 145.67 192.111 145.67C187.571 145.67 183.891 149.35 183.891 153.89C183.891 158.43 187.571 162.11 192.111 162.11Z" fill="#510101" stroke="#510101" stroke-width="2" stroke-miterlimit="10"/>
<path d="M154.65 180.61C159.189 180.61 162.87 176.93 162.87 172.39C162.87 167.85 159.189 164.17 154.65 164.17C150.11 164.17 146.43 167.85 146.43 172.39C146.43 176.93 150.11 180.61 154.65 180.61Z" fill="#510101" stroke="#510101" stroke-width="2" stroke-miterlimit="10"/>
<path d="M129.009 209.53C133.549 209.53 137.229 205.85 137.229 201.31C137.229 196.77 133.549 193.09 129.009 193.09C124.469 193.09 120.789 196.77 120.789 201.31C120.789 205.85 124.469 209.53 129.009 209.53Z" fill="#510101" stroke="#510101" stroke-width="2" stroke-miterlimit="10"/>
</svg>
