<svg width="526" height="516" viewBox="0 0 526 516" fill="none" xmlns="http://www.w3.org/2000/svg">
<path d="M137.242 183.335C127.641 181.314 115.719 185.229 110.796 197.487C105.304 211.164 112.638 225.174 129.634 231.999C146.629 238.825 161.617 233.779 167.109 220.102C172.032 207.844 166.049 196.738 157.797 191.59L156.421 195.016C163.319 199.434 167.864 208.936 163.897 218.812C159.555 229.625 147.202 235.232 130.956 228.707C114.87 222.247 109.666 209.59 114.008 198.777C117.974 188.901 127.909 185.213 135.866 186.761L137.242 183.335Z" fill="#0E103D"/>
<path d="M204.048 136.82C193.276 122.032 177.829 118.301 165.914 126.98C153.952 135.692 152.789 151.522 163.561 166.31C174.315 181.075 189.756 184.847 201.718 176.134C213.632 167.455 214.819 151.608 204.048 136.82ZM201.197 138.896C210.88 152.189 209.815 165.945 199.676 173.33C189.443 180.784 176.083 177.464 166.434 164.217C156.701 150.854 157.817 137.168 167.956 129.783C178.095 122.398 191.491 125.62 201.197 138.896Z" fill="#0E103D"/>
<path d="M278.855 124.687C277.651 106.469 266.609 95.0877 251.932 96.0574C237.196 97.031 227.776 109.765 228.98 127.982C230.182 146.171 241.197 157.583 255.932 156.61C270.61 155.64 280.059 142.904 278.855 124.687ZM275.344 124.919C276.426 141.294 268.194 152.331 255.704 153.156C243.099 153.989 233.598 144.066 232.52 127.748C231.432 111.286 239.669 100.336 252.16 99.511C264.65 98.6858 274.233 108.545 275.344 124.919Z" fill="#0E103D"/>
<path d="M293.367 158.853L296.61 160.427L305.011 143.12L316.617 138.43L325.049 174.23L329.097 176.194L319.826 137.102L355.097 123.155L350.789 121.064L307.792 138.314L307.429 138.138L322.403 107.286L319.159 105.712L293.367 158.853Z" fill="#0E103D"/>
<path d="M381.422 146.852L378.898 144.256L336.369 185.605L338.892 188.201L381.422 146.852Z" fill="#0E103D"/>
<path d="M350.542 201.771L364.841 232.146L367.868 230.72L355.104 203.608L377.311 193.153L389.031 218.048L392.058 216.623L380.338 191.728L402.493 181.298L414.962 207.785L417.989 206.36L403.985 176.611L350.542 201.771Z" fill="#0E103D"/>
<path d="M204.917 371.213C208.865 363.316 208.174 352.045 198.624 344.965C187.97 337.067 174.101 340.259 164.286 353.499C154.471 366.74 155.448 380.937 166.103 388.836C175.653 395.915 186.684 393.237 193.046 387.227L190.377 385.248C184.96 390.246 175.652 392.037 167.958 386.334C159.534 380.089 157.468 368.057 166.851 355.401C176.14 342.869 188.346 341.223 196.77 347.468C204.464 353.171 205.409 362.66 202.248 369.235L204.917 371.213Z" fill="#0E103D"/>
<path d="M217.218 414.004L245.769 420.125L246.4 417.181L221.021 411.74L231.532 362.709L228.36 362.028L217.218 414.004Z" fill="#0E103D"/>
<path d="M305.432 361.024L313.202 395.165C315.235 404.098 310.146 412.151 300.757 414.287C291.367 416.424 283.296 411.366 281.263 402.433L273.493 368.292L270.33 369.012L278.139 403.33C280.51 413.864 290.312 419.858 301.448 417.324C312.609 414.784 318.807 405.175 316.405 394.622L308.596 360.304L305.432 361.024Z" fill="#0E103D"/>
<path d="M357.438 393.183L371.824 381.295C379.747 374.747 380.26 367.016 375.069 360.734C370.141 354.772 363.123 353.939 358.62 357.087L358.422 356.847C361.433 352.709 361.233 347.251 357.116 342.269C351.908 335.967 344.324 335.062 336.882 341.212L323.577 352.207L357.438 393.183ZM358.021 388.795L343.686 371.449L355.651 361.561C361.293 356.899 368.382 357.573 372.648 362.735C376.682 367.616 376.068 373.882 369.906 378.974L358.021 388.795ZM341.801 369.168L327.995 352.462L338.799 343.533C344.602 338.738 350.495 339.188 354.695 344.27C358.58 348.972 358.688 355.213 353.466 359.529L341.801 369.168Z" fill="#0E103D"/>
<path d="M388.92 272.84C391.637 272.84 393.84 270.637 393.84 267.92C393.84 265.203 391.637 263 388.92 263C386.203 263 384 265.203 384 267.92C384 270.637 386.203 272.84 388.92 272.84Z" stroke="#0E103D" stroke-width="2" stroke-miterlimit="10"/>
<path d="M137.92 272.84C140.637 272.84 142.84 270.637 142.84 267.92C142.84 265.203 140.637 263 137.92 263C135.203 263 133 265.203 133 267.92C133 270.637 135.203 272.84 137.92 272.84Z" stroke="#0E103D" stroke-width="2" stroke-miterlimit="10"/>
<path d="M263 328C296.137 328 323 301.137 323 268C323 234.863 296.137 208 263 208C229.863 208 203 234.863 203 268C203 301.137 229.863 328 263 328Z" stroke="#0E103D" stroke-width="2" stroke-miterlimit="10"/>
<path d="M263.65 237.55C268.189 237.55 271.87 233.87 271.87 229.33C271.87 224.791 268.189 221.11 263.65 221.11C259.11 221.11 255.43 224.791 255.43 229.33C255.43 233.87 259.11 237.55 263.65 237.55Z" stroke="#0E103D" stroke-width="2" stroke-miterlimit="10"/>
<path d="M226.4 262.25C230.939 262.25 234.62 258.569 234.62 254.03C234.62 249.49 230.939 245.81 226.4 245.81C221.86 245.81 218.18 249.49 218.18 254.03C218.18 258.569 221.86 262.25 226.4 262.25Z" stroke="#0E103D" stroke-width="2" stroke-miterlimit="10"/>
<path d="M288.24 309.19C292.779 309.19 296.46 305.51 296.46 300.97C296.46 296.43 292.779 292.75 288.24 292.75C283.7 292.75 280.02 296.43 280.02 300.97C280.02 305.51 283.7 309.19 288.24 309.19Z" stroke="#0E103D" stroke-width="2" stroke-miterlimit="10"/>
<path d="M301.111 258.11C305.65 258.11 309.331 254.43 309.331 249.89C309.331 245.35 305.65 241.67 301.111 241.67C296.571 241.67 292.891 245.35 292.891 249.89C292.891 254.43 296.571 258.11 301.111 258.11Z" stroke="#0E103D" stroke-width="2" stroke-miterlimit="10"/>
<path d="M263.65 276.61C268.189 276.61 271.87 272.93 271.87 268.39C271.87 263.85 268.189 260.17 263.65 260.17C259.11 260.17 255.43 263.85 255.43 268.39C255.43 272.93 259.11 276.61 263.65 276.61Z" stroke="#0E103D" stroke-width="2" stroke-miterlimit="10"/>
<path d="M238.009 305.53C242.549 305.53 246.229 301.85 246.229 297.31C246.229 292.77 242.549 289.09 238.009 289.09C233.469 289.09 229.789 292.77 229.789 297.31C229.789 301.85 233.469 305.53 238.009 305.53Z" stroke="#0E103D" stroke-width="2" stroke-miterlimit="10"/>
</svg>
